<svg xmlns="http://www.w3.org/2000/svg" viewBox="0 0 24 24" width="100%" height="100%">
  <!-- Map Pin Shape -->
  <path fill="#F57C00" d="M12 2C8.13 2 5 5.13 5 9c0 5.25 7 13 7 13s7-7.75 7-13c0-3.87-3.13-7-7-7zm0 13.344C10.57 12.87 6.5 8.91 6.5 9c0-3.04 2.46-5.5 5.5-5.5s5.5 2.46 5.5 5.5c0 .09-4.07 3.87-5.5 6.344z"/>
  
  <!-- Outer circle acting as strict white cutout -->
  <circle cx="12" cy="9" r="6" fill="#F57C00" />
  <circle cx="12" cy="9" r="5" fill="#FFFFFF" />
  
  <!-- Wheelchair Symbol inside the circle, colored Orange #F57C00 -->
  <g transform="translate(8, 5) scale(0.333333)">
    <!-- Head -->
    <circle cx="12" cy="4" r="2" fill="#F57C00" />
    
    <!-- Body/Chair Path (Standard Material Icon form) -->
    <path fill="#F57C00" d="M19 13v-2c-1.54.02-3.09-.75-4.07-1.83l-1.29-1.43c-.17-.19-.38-.34-.61-.45-.01 0-.01-.01-.02-.01H13c-.35-.2-.75-.3-1.19-.26C10.76 7.11 10 8.04 10 9.09V15c0 1.1.9 2 2 2h5v5h2v-5.5c0-1.1-.9-2-2-2h-3v-3.45c1.29 1.07 3.25 1.94 5 1.95zm-6.17 5c-.41 1.16-1.52 2-2.83 2-1.66 0-3-1.34-3-3 0-1.31.84-2.41 2-2.83V12.1a5 5 0 1 0 5.9 5.9h-2.07z"/>
  </g>
</svg>
